<?xml version="1.0" encoding="UTF-8"?>
<svg width="180px" height="180px" viewBox="0 0 180 180" version="1.1" xmlns="http://www.w3.org/2000/svg" xmlns:xlink="http://www.w3.org/1999/xlink" style="background: #00E2AD;">
    <!-- Generator: Sketch 49.3 (51167) - http://www.bohemiancoding.com/sketch -->
    <title>apple-touch-icon-180x180</title>
    <desc>Created with Sketch.</desc>
    <defs></defs>
    <g id="apple-touch-icon-180x180" stroke="none" stroke-width="1" fill="none" fill-rule="evenodd">
        <g id="Group">
            <g id="ueno-logo" transform="translate(23.554688, 73.125000)" fill="#FFFFFF" fill-rule="nonzero">
                <path d="M71.3267356,31.276125 L63.4165348,31.276125 L63.4165348,2.4688125 L71.3233623,2.4688125 L71.3233623,7.1735625 C73.1406977,3.64285732 76.8507833,1.49860481 80.8156032,1.6875 C88.5908752,1.6875 91.4243799,6.91875 91.4243799,13.3160625 L91.4243799,31.276125 L83.5175524,31.276125 L83.5175524,14.880375 C83.5175524,10.4405625 81.7381789,7.89075 77.8505429,7.89075 C73.8313514,7.89075 71.3267356,11.0244375 71.3267356,15.859125 L71.3267356,31.276125 Z M109.629648,32.0625 C101.26445,31.969479 94.5513498,25.1223288 94.6193562,16.752476 C94.6873626,8.38262318 101.510837,1.64557589 109.876441,1.68863893 C118.242045,1.73170196 124.995872,8.53864018 124.977799,16.90875 C124.977799,25.8575625 118.653011,32.0625 109.629648,32.0625 Z M109.629648,26.1174375 C114.505637,26.1174375 117.010253,22.3306875 117.010253,16.90875 C117.010253,11.417625 114.505637,7.6275 109.629648,7.6275 C104.819436,7.6275 102.316507,11.41425 102.316507,16.90875 C102.313134,22.329 104.816063,26.11575 109.629648,26.11575 L109.629648,26.1174375 Z M20.0976444,2.4688125 L27.9977255,2.4688125 L27.9977255,31.276125 L20.0908979,31.276125 L20.0908979,26.571375 C18.2765416,30.100598 14.5711477,32.2464028 10.6087767,32.0625 C2.83350475,32.0625 2.84217094e-14,26.83125 2.84217094e-14,20.435625 L2.84217094e-14,2.4688125 L7.90682753,2.4688125 L7.90682753,18.86625 C7.90682753,23.3060625 9.68620105,25.855875 13.573837,25.855875 C17.5930286,25.855875 20.0976444,22.7188125 20.0976444,17.884125 L20.0976444,2.4688125 Z M53.0253308,23.0833125 C51.5986579,25.1923446 49.1371298,26.356496 46.60272,26.1208125 C42.4305901,26.2626995 38.9133477,23.0355458 38.6942059,18.8645625 L60.505446,18.8645625 L60.505446,16.0565625 C60.505446,8.218125 55.6294566,1.6858125 46.1405889,1.6858125 C42.0138211,1.60980692 38.039022,3.24303671 35.1567733,6.19902052 C32.2745245,9.15500434 30.7409445,13.1710715 30.9189339,17.296875 C30.9189339,26.375625 37.3769635,32.059125 46.3379223,32.059125 C52.0217979,32.059125 56.2889211,29.8501875 58.650175,25.9588125 L53.0253308,23.0833125 Z M46.0748111,7.4334375 C47.8396564,7.37858543 49.5512495,8.04238172 50.8180877,9.27299236 C52.0849258,10.503603 52.7986305,12.1957487 52.7959594,13.962375 L38.8257615,13.962375 C39.5510038,10.37475 41.7267306,7.435125 46.0748111,7.435125 L46.0748111,7.4334375 Z M129.271908,31.9021875 C127.090075,31.9124649 125.312778,30.1516051 125.301628,27.968625 L125.301628,27.799875 C125.306537,26.7512551 125.727593,25.7475364 126.472168,25.0095314 C127.216742,24.2715264 128.223841,23.8596903 129.271908,23.864625 C130.320847,23.8596917 131.328711,24.2722217 132.073431,25.0113207 C132.818151,25.7504196 133.238618,26.7554386 133.242187,27.8049375 L133.242187,27.9736875 C133.230109,30.1560073 131.453086,31.9158417 129.271908,31.9055625 L129.271908,31.9021875 Z" id="Shape"></path>
            </g>
            <rect id="Rectangle" x="0" y="0" width="180" height="180"></rect>
        </g>
    </g>
</svg>